<svg width="282" height="104" viewBox="0 0 282 104" fill="none" xmlns="http://www.w3.org/2000/svg">
<rect width="282" height="104" rx="8" fill="#F2C94C"/>
<path d="M105.608 43.536H117.536V46.488H109.088V50.544H116.648V53.496H109.088V60H105.608V43.536ZM124.797 60.288C122.637 60.288 121.029 59.752 119.973 58.68C118.917 57.608 118.389 55.944 118.389 53.688C118.389 51.432 118.917 49.768 119.973 48.696C121.029 47.624 122.637 47.088 124.797 47.088C126.957 47.088 128.565 47.624 129.621 48.696C130.693 49.768 131.229 51.432 131.229 53.688C131.229 55.944 130.693 57.608 129.621 58.68C128.565 59.752 126.957 60.288 124.797 60.288ZM124.797 57.6C125.869 57.6 126.645 57.296 127.125 56.688C127.605 56.064 127.845 55.128 127.845 53.88V53.496C127.845 52.248 127.605 51.32 127.125 50.712C126.645 50.088 125.869 49.776 124.797 49.776C123.725 49.776 122.949 50.088 122.469 50.712C122.005 51.32 121.773 52.248 121.773 53.496V53.88C121.773 55.128 122.005 56.064 122.469 56.688C122.949 57.296 123.725 57.6 124.797 57.6ZM133.852 47.376H136.66L136.924 49.416H137.092C137.364 48.696 137.716 48.128 138.148 47.712C138.58 47.296 139.148 47.088 139.852 47.088C140.316 47.088 140.732 47.16 141.1 47.304V50.376H140.188C139.116 50.376 138.34 50.672 137.86 51.264C137.38 51.84 137.14 52.72 137.14 53.904V60H133.852V47.376ZM143.181 47.376H145.989L146.229 49.032H146.397C147.325 47.736 148.525 47.088 149.997 47.088C151.597 47.088 152.701 47.736 153.309 49.032H153.501C154.461 47.736 155.709 47.088 157.245 47.088C158.445 47.088 159.397 47.44 160.101 48.144C160.821 48.848 161.181 49.976 161.181 51.528V60H157.893V52.224C157.893 50.736 157.277 49.992 156.045 49.992C155.405 49.992 154.877 50.256 154.461 50.784C154.045 51.296 153.837 51.936 153.837 52.704V60H150.549V52.224C150.549 50.736 149.933 49.992 148.701 49.992C148.061 49.992 147.525 50.256 147.093 50.784C146.677 51.296 146.469 51.936 146.469 52.704V60H143.181V47.376ZM168.613 60.288C167.317 60.288 166.293 59.936 165.541 59.232C164.805 58.528 164.437 57.4 164.437 55.848V47.376H167.725V55.152C167.725 55.936 167.909 56.504 168.277 56.856C168.645 57.208 169.189 57.384 169.909 57.384C170.645 57.384 171.253 57.128 171.733 56.616C172.229 56.088 172.477 55.44 172.477 54.672V47.376H175.765V60H172.957L172.717 58.344H172.549C171.525 59.64 170.213 60.288 168.613 60.288ZM179.181 42.648H182.469V60H179.181V42.648ZM188.764 60.288C187.788 60.288 186.892 60.032 186.076 59.52C185.26 59.008 184.852 58.08 184.852 56.736C184.852 55.12 185.516 53.976 186.844 53.304C188.172 52.616 190.052 52.272 192.484 52.272V51.384C192.484 50.824 192.356 50.392 192.1 50.088C191.86 49.784 191.396 49.632 190.708 49.632C189.972 49.632 189.444 49.744 189.124 49.968C188.82 50.192 188.668 50.456 188.668 50.76V51.12H185.5C185.484 51.024 185.476 50.848 185.476 50.592C185.476 49.536 185.94 48.688 186.868 48.048C187.812 47.408 189.06 47.088 190.612 47.088C192.34 47.088 193.628 47.44 194.476 48.144C195.34 48.848 195.772 49.864 195.772 51.192V56.76C195.772 57.048 195.852 57.264 196.012 57.408C196.172 57.536 196.372 57.6 196.612 57.6H197.284V59.904C196.772 60.16 196.14 60.288 195.388 60.288C194.732 60.288 194.18 60.144 193.732 59.856C193.3 59.568 193.004 59.16 192.844 58.632H192.7C192.236 59.176 191.7 59.592 191.092 59.88C190.5 60.152 189.724 60.288 188.764 60.288ZM189.796 57.696C190.724 57.696 191.404 57.44 191.836 56.928C192.268 56.4 192.484 55.704 192.484 54.84V54.456C189.62 54.456 188.188 55.096 188.188 56.376C188.188 56.776 188.316 57.096 188.572 57.336C188.844 57.576 189.252 57.696 189.796 57.696ZM199.196 47.376H202.004L202.268 49.416H202.436C202.708 48.696 203.06 48.128 203.492 47.712C203.924 47.296 204.492 47.088 205.196 47.088C205.66 47.088 206.076 47.16 206.444 47.304V50.376H205.532C204.46 50.376 203.684 50.672 203.204 51.264C202.724 51.84 202.484 52.72 202.484 53.904V60H199.196V47.376ZM208.5 42.648H211.788V45.768H208.5V42.648ZM208.5 47.376H211.788V60H208.5V47.376ZM220.82 60.288C218.66 60.288 217.052 59.752 215.996 58.68C214.94 57.608 214.412 55.944 214.412 53.688C214.412 51.432 214.94 49.768 215.996 48.696C217.052 47.624 218.66 47.088 220.82 47.088C222.98 47.088 224.588 47.624 225.644 48.696C226.716 49.768 227.252 51.432 227.252 53.688C227.252 55.944 226.716 57.608 225.644 58.68C224.588 59.752 222.98 60.288 220.82 60.288ZM220.82 57.6C221.892 57.6 222.668 57.296 223.148 56.688C223.628 56.064 223.868 55.128 223.868 53.88V53.496C223.868 52.248 223.628 51.32 223.148 50.712C222.668 50.088 221.892 49.776 220.82 49.776C219.748 49.776 218.972 50.088 218.492 50.712C218.028 51.32 217.796 52.248 217.796 53.496V53.88C217.796 55.128 218.028 56.064 218.492 56.688C218.972 57.296 219.748 57.6 220.82 57.6Z" fill="white"/>
<path d="M45 38H54C55.5913 38 57.1174 38.6556 58.2426 39.8225C59.3679 40.9894 60 42.572 60 44.2223V66C60 64.7624 59.5259 63.5754 58.682 62.7002C57.8381 61.825 56.6935 61.3334 55.5 61.3334H45V38Z" stroke="white" stroke-width="3" stroke-linecap="round" stroke-linejoin="round"/>
<path d="M75 38H66C64.4087 38 62.8826 38.6556 61.7574 39.8225C60.6321 40.9894 60 42.572 60 44.2223V66C60 64.7624 60.4741 63.5754 61.318 62.7002C62.1619 61.825 63.3065 61.3334 64.5 61.3334H75V38Z" stroke="white" stroke-width="3" stroke-linecap="round" stroke-linejoin="round"/>
</svg>
