<svg width="282" height="104" viewBox="0 0 282 104" fill="none" xmlns="http://www.w3.org/2000/svg">
<rect width="282" height="104" rx="8" fill="#F2C94C"/>
<path d="M105.608 43.536H109.088V60H105.608V43.536ZM112.384 47.376H115.192L115.432 49.032H115.6C116.624 47.736 117.936 47.088 119.536 47.088C120.832 47.088 121.848 47.44 122.584 48.144C123.336 48.848 123.712 49.976 123.712 51.528V60H120.424V52.224C120.424 51.44 120.24 50.872 119.872 50.52C119.504 50.168 118.96 49.992 118.24 49.992C117.504 49.992 116.888 50.256 116.392 50.784C115.912 51.296 115.672 51.936 115.672 52.704V60H112.384V47.376ZM127.368 50.064H125.568V47.376H127.368V45.936C127.368 44.944 127.632 44.12 128.16 43.464C128.688 42.792 129.56 42.456 130.776 42.456C131.112 42.456 131.48 42.496 131.88 42.576C132.28 42.656 132.616 42.744 132.888 42.84V45.144H131.688C131 45.144 130.656 45.488 130.656 46.176V47.376H132.888V50.064H130.656V60H127.368V50.064ZM140.664 60.288C138.504 60.288 136.896 59.752 135.84 58.68C134.784 57.608 134.256 55.944 134.256 53.688C134.256 51.432 134.784 49.768 135.84 48.696C136.896 47.624 138.504 47.088 140.664 47.088C142.824 47.088 144.432 47.624 145.488 48.696C146.56 49.768 147.096 51.432 147.096 53.688C147.096 55.944 146.56 57.608 145.488 58.68C144.432 59.752 142.824 60.288 140.664 60.288ZM140.664 57.6C141.736 57.6 142.512 57.296 142.992 56.688C143.472 56.064 143.712 55.128 143.712 53.88V53.496C143.712 52.248 143.472 51.32 142.992 50.712C142.512 50.088 141.736 49.776 140.664 49.776C139.592 49.776 138.816 50.088 138.336 50.712C137.872 51.32 137.64 52.248 137.64 53.496V53.88C137.64 55.128 137.872 56.064 138.336 56.688C138.816 57.296 139.592 57.6 140.664 57.6ZM149.72 47.376H152.528L152.792 49.416H152.96C153.232 48.696 153.584 48.128 154.016 47.712C154.448 47.296 155.016 47.088 155.72 47.088C156.184 47.088 156.6 47.16 156.968 47.304V50.376H156.056C154.984 50.376 154.208 50.672 153.728 51.264C153.248 51.84 153.008 52.72 153.008 53.904V60H149.72V47.376ZM159.048 47.376H161.856L162.096 49.032H162.264C163.192 47.736 164.392 47.088 165.864 47.088C167.464 47.088 168.568 47.736 169.176 49.032H169.368C170.328 47.736 171.576 47.088 173.112 47.088C174.312 47.088 175.264 47.44 175.968 48.144C176.688 48.848 177.048 49.976 177.048 51.528V60H173.76V52.224C173.76 50.736 173.144 49.992 171.912 49.992C171.272 49.992 170.744 50.256 170.328 50.784C169.912 51.296 169.704 51.936 169.704 52.704V60H166.416V52.224C166.416 50.736 165.8 49.992 164.568 49.992C163.928 49.992 163.392 50.256 162.96 50.784C162.544 51.296 162.336 51.936 162.336 52.704V60H159.048V47.376ZM183.28 60.288C182.304 60.288 181.408 60.032 180.592 59.52C179.776 59.008 179.368 58.08 179.368 56.736C179.368 55.12 180.032 53.976 181.36 53.304C182.688 52.616 184.568 52.272 187 52.272V51.384C187 50.824 186.872 50.392 186.616 50.088C186.376 49.784 185.912 49.632 185.224 49.632C184.488 49.632 183.96 49.744 183.64 49.968C183.336 50.192 183.184 50.456 183.184 50.76V51.12H180.016C180 51.024 179.992 50.848 179.992 50.592C179.992 49.536 180.456 48.688 181.384 48.048C182.328 47.408 183.576 47.088 185.128 47.088C186.856 47.088 188.144 47.44 188.992 48.144C189.856 48.848 190.288 49.864 190.288 51.192V56.76C190.288 57.048 190.368 57.264 190.528 57.408C190.688 57.536 190.888 57.6 191.128 57.6H191.8V59.904C191.288 60.16 190.656 60.288 189.904 60.288C189.248 60.288 188.696 60.144 188.248 59.856C187.816 59.568 187.52 59.16 187.36 58.632H187.216C186.752 59.176 186.216 59.592 185.608 59.88C185.016 60.152 184.24 60.288 183.28 60.288ZM184.312 57.696C185.24 57.696 185.92 57.44 186.352 56.928C186.784 56.4 187 55.704 187 54.84V54.456C184.136 54.456 182.704 55.096 182.704 56.376C182.704 56.776 182.832 57.096 183.088 57.336C183.36 57.576 183.768 57.696 184.312 57.696ZM199.04 57.648C199.728 57.648 200.272 57.44 200.672 57.024C201.088 56.592 201.296 56 201.296 55.248H204.464C204.464 56.8 204.024 58 203.144 58.848C202.264 59.696 201.064 60.168 199.544 60.264L199.472 60.816C200.176 60.848 200.744 61 201.176 61.272C201.608 61.544 201.824 61.936 201.824 62.448C201.824 63.168 201.488 63.672 200.816 63.96C200.16 64.248 199.408 64.392 198.56 64.392C197.664 64.392 196.832 64.328 196.064 64.2V63.024H198.176C198.544 63.024 198.816 62.984 198.992 62.904C199.168 62.824 199.256 62.672 199.256 62.448C199.256 62.256 199.176 62.112 199.016 62.016C198.872 61.92 198.616 61.872 198.248 61.872H197.264L197.504 60.192C195.968 59.952 194.816 59.304 194.048 58.248C193.296 57.176 192.92 55.656 192.92 53.688C192.92 51.448 193.416 49.792 194.408 48.72C195.416 47.632 196.928 47.088 198.944 47.088C200.624 47.088 201.96 47.52 202.952 48.384C203.96 49.232 204.464 50.48 204.464 52.128H201.152C201.152 51.36 200.952 50.768 200.552 50.352C200.152 49.936 199.592 49.728 198.872 49.728C197.976 49.728 197.312 50.048 196.88 50.688C196.464 51.312 196.256 52.248 196.256 53.496V53.88C196.256 55.128 196.472 56.072 196.904 56.712C197.352 57.336 198.064 57.648 199.04 57.648ZM212.664 60.288C210.504 60.288 208.896 59.752 207.84 58.68C206.784 57.608 206.256 55.944 206.256 53.688C206.256 51.432 206.784 49.768 207.84 48.696C208.896 47.624 210.504 47.088 212.664 47.088C214.824 47.088 216.432 47.624 217.488 48.696C218.56 49.768 219.096 51.432 219.096 53.688C219.096 55.944 218.56 57.608 217.488 58.68C216.432 59.752 214.824 60.288 212.664 60.288ZM212.664 57.6C213.736 57.6 214.512 57.296 214.992 56.688C215.472 56.064 215.712 55.128 215.712 53.88V53.496C215.712 52.248 215.472 51.32 214.992 50.712C214.512 50.088 213.736 49.776 212.664 49.776C211.592 49.776 210.816 50.088 210.336 50.712C209.872 51.32 209.64 52.248 209.64 53.496V53.88C209.64 55.128 209.872 56.064 210.336 56.688C210.816 57.296 211.592 57.6 212.664 57.6ZM208.656 45.576C208.656 44.728 208.848 44.032 209.232 43.488C209.632 42.928 210.224 42.648 211.008 42.648C211.264 42.648 211.504 42.688 211.728 42.768C211.952 42.832 212.264 42.944 212.664 43.104C213 43.248 213.28 43.36 213.504 43.44C213.728 43.504 213.96 43.536 214.2 43.536C214.44 43.536 214.624 43.472 214.752 43.344C214.896 43.2 214.992 42.968 215.04 42.648H216.72C216.72 43.496 216.52 44.2 216.12 44.76C215.736 45.304 215.144 45.576 214.344 45.576C214.088 45.576 213.848 45.544 213.624 45.48C213.416 45.4 213.112 45.28 212.712 45.12C212.376 44.976 212.096 44.872 211.872 44.808C211.648 44.728 211.416 44.688 211.176 44.688C210.696 44.688 210.416 44.984 210.336 45.576H208.656ZM226.928 60.288C224.896 60.288 223.376 59.752 222.368 58.68C221.376 57.608 220.88 55.944 220.88 53.688C220.88 51.432 221.376 49.768 222.368 48.696C223.376 47.624 224.896 47.088 226.928 47.088C228.8 47.088 230.2 47.632 231.128 48.72C232.056 49.792 232.52 51.448 232.52 53.688V54.456H224.216C224.248 55.576 224.472 56.408 224.888 56.952C225.304 57.48 226 57.744 226.976 57.744C227.664 57.744 228.216 57.552 228.632 57.168C229.064 56.784 229.28 56.24 229.28 55.536H232.52C232.52 57.12 232.008 58.312 230.984 59.112C229.96 59.896 228.608 60.288 226.928 60.288ZM229.112 52.272C229.112 50.528 228.384 49.656 226.928 49.656C226.096 49.656 225.464 49.872 225.032 50.304C224.616 50.736 224.36 51.392 224.264 52.272H229.112ZM240.096 60.288C238.336 60.288 236.952 59.928 235.944 59.208C234.952 58.472 234.456 57.496 234.456 56.28L234.48 55.992H237.672V56.16C237.688 56.72 237.936 57.128 238.416 57.384C238.912 57.624 239.512 57.744 240.216 57.744C240.872 57.744 241.432 57.656 241.896 57.48C242.36 57.304 242.592 57.016 242.592 56.616C242.592 56.168 242.352 55.832 241.872 55.608C241.408 55.384 240.672 55.16 239.664 54.936C238.624 54.696 237.776 54.456 237.12 54.216C236.464 53.96 235.896 53.568 235.416 53.04C234.936 52.512 234.696 51.808 234.696 50.928C234.696 49.696 235.208 48.752 236.232 48.096C237.272 47.424 238.608 47.088 240.24 47.088C241.76 47.088 243.016 47.4 244.008 48.024C245 48.632 245.496 49.464 245.496 50.52L245.472 51.072H242.28V50.928C242.28 50.512 242.08 50.192 241.68 49.968C241.296 49.744 240.776 49.632 240.12 49.632C239.464 49.632 238.944 49.72 238.56 49.896C238.176 50.072 237.984 50.32 237.984 50.64C237.984 51.04 238.2 51.336 238.632 51.528C239.08 51.72 239.792 51.912 240.768 52.104C241.84 52.344 242.712 52.584 243.384 52.824C244.056 53.064 244.64 53.456 245.136 54C245.632 54.544 245.88 55.28 245.88 56.208C245.88 58.928 243.952 60.288 240.096 60.288Z" fill="white"/>
<path d="M45 38H54C55.5913 38 57.1174 38.6556 58.2426 39.8225C59.3679 40.9894 60 42.572 60 44.2223V66C60 64.7624 59.5259 63.5754 58.682 62.7002C57.8381 61.825 56.6935 61.3334 55.5 61.3334H45V38Z" stroke="white" stroke-width="3" stroke-linecap="round" stroke-linejoin="round"/>
<path d="M75 38H66C64.4087 38 62.8826 38.6556 61.7574 39.8225C60.6321 40.9894 60 42.572 60 44.2223V66C60 64.7624 60.4741 63.5754 61.318 62.7002C62.1619 61.825 63.3065 61.3334 64.5 61.3334H75V38Z" stroke="white" stroke-width="3" stroke-linecap="round" stroke-linejoin="round"/>
</svg>
